<?xml version="1.0" standalone="no"?><!DOCTYPE svg PUBLIC "-//W3C//DTD SVG 1.1//EN" "http://www.w3.org/Graphics/SVG/1.1/DTD/svg11.dtd"><svg t="1732207391180" class="icon" viewBox="0 0 1024 1024" version="1.1" xmlns="http://www.w3.org/2000/svg" p-id="8268" xmlns:xlink="http://www.w3.org/1999/xlink" width="200" height="200"><path d="M935.335233 153.62202h-846.666656a84.666666 84.666666 0 0 0-84.666666 84.666666v550.333327a84.666666 84.666666 0 0 0 84.666666 84.666665h846.666656a84.666666 84.666666 0 0 0 84.666666-84.666665v-550.333327a84.666666 84.666666 0 0 0-84.666666-84.666666z m-27.293711 213.952665L557.558216 549.672927a94.993177 94.993177 0 0 1-87.065555 0.197555l-354.612218-182.202664a42.333333 42.333333 0 0 1 38.698311-75.308177l354.606573 182.202664a10.196689 10.196689 0 0 0 9.341556-0.022577l350.477662-182.089776a42.333333 42.333333 0 1 1 39.034155 75.127555z" fill="#231815" p-id="8269"></path></svg>